<svg xmlns:xlink="http://www.w3.org/1999/xlink"  role="img" aria-hidden="true" xmlns="http://www.w3.org/2000/svg" width="28" height="28" viewBox="0 0 28 28">
<path opacity=".5" fill="none" d="M0 0h28v28H0z"></path>
<path fill="white" d="M20.807 10.413c.007.149.01.304.011.454.032 4.659-3.471 10.048-9.955 10.094a9.984 9.984 0 0 1-5.41-1.545c.278.028.558.044.84.042a7.094 7.094 0 0 0 4.368-1.537 3.535 3.535 0 0 1-3.311-2.424c.216.04.438.059.663.057.32 0 .649-.044.948-.128a3.496 3.496 0 0 1-2.835-3.436v-.042c.438.259 1.004.414 1.58.428a3.532 3.532 0 0 1-1.135-4.697 10.002 10.002 0 0 0 7.284 3.633 3.521 3.521 0 0 1 3.4-4.351 3.52 3.52 0 0 1 2.581 1.094 6.977 6.977 0 0 0 2.233-.871 3.541 3.541 0 0 1-1.54 1.96 6.827 6.827 0 0 0 2.019-.569 7.13 7.13 0 0 1-1.741 1.838z"></path>
</svg>